<?xml version="1.0" encoding="UTF-8"?>
<svg width="100" height="60" viewBox="0 0 100 60" xmlns="http://www.w3.org/2000/svg">
    <g transform="translate(0,0)">
        <!-- 锦鲤身体 -->
        <path d="M90,30 C90,18 75,8 55,8 C35,8 15,18 5,30 C15,42 35,52 55,52 C75,52 90,42 90,30 Z" 
              fill="#FF6B6B" stroke="#E84855" stroke-width="2"/>
        <!-- 尾鳍 -->
        <path d="M85,30 C95,20 98,15 100,10 C97,20 97,40 100,50 C98,45 95,40 85,30" 
              fill="#FF6B6B" stroke="#E84855" stroke-width="2"/>
        <!-- 眼睛 -->
        <circle cx="65" cy="30" r="3" fill="#333"/>
        <!-- 鳍 -->
        <path d="M40,15 C45,5 55,5 60,15" stroke="#E84855" stroke-width="2" fill="none"/>
        <path d="M40,45 C45,55 55,55 60,45" stroke="#E84855" stroke-width="2" fill="none"/>
    </g>
</svg> 